<?xml version="1.0" encoding="UTF-8" standalone="no"?>
<svg
   version="1.1"
   id="Layer_1"
   x="0px"
   y="0px"
   width="900"
   viewBox="0 0 900 900"
   enable-background="new 0 0 880 937"
   xml:space="preserve"
   sodipodi:docname="logo_homepage.svg"
   height="900"
   inkscape:version="1.3.2 (091e20ef0f, 2023-11-25)"
   xmlns:inkscape="http://www.inkscape.org/namespaces/inkscape"
   xmlns:sodipodi="http://sodipodi.sourceforge.net/DTD/sodipodi-0.dtd"
   xmlns="http://www.w3.org/2000/svg"
   xmlns:svg="http://www.w3.org/2000/svg"><defs
   id="defs19" /><sodipodi:namedview
   id="namedview19"
   pagecolor="#ffffff"
   bordercolor="#000000"
   borderopacity="0.25"
   inkscape:showpageshadow="2"
   inkscape:pageopacity="0.0"
   inkscape:pagecheckerboard="true"
   inkscape:deskcolor="#d1d1d1"
   inkscape:zoom="0.89090909"
   inkscape:cx="453.46939"
   inkscape:cy="465.2551"
   inkscape:window-width="1916"
   inkscape:window-height="1030"
   inkscape:window-x="0"
   inkscape:window-y="0"
   inkscape:window-maximized="0"
   inkscape:current-layer="Layer_1" />


















<g
   id="g1"
   transform="translate(94.056936,139.61944)"><path
     fill="#020202"
     opacity="1"
     stroke="none"
     d="m 662.23245,430.40755 c 16.98419,32.875 15.94848,65.57177 1.2077,98.49658 -18.38202,41.05761 -47.84833,69.95837 -91.19311,83.79742 -45.94214,14.66828 -88.52546,6.49536 -126.93482,-21.22284 -17.29779,-12.48291 -32.20541,-28.30279 -48.03461,-42.78662 -9.57797,-8.76385 -18.77835,-17.93896 -28.26687,-26.80243 -10.99717,-10.27258 -19.08698,-9.91095 -29.65552,0.92566 -15.79501,16.19574 -31.02185,33.01727 -47.65576,48.30457 -19.59049,18.00445 -41.7403,32.52893 -67.02094,41.6961 -33.74875,12.23798 -66.84772,10.3147 -98.85113,-5.60681 -30.755847,-15.3009 -56.301807,-36.64465 -73.264797,-67.12579 -11.31527,-20.33258 -15.38389,-42.30847 -14.88542,-65.42047 0.6777,-31.42185 12.4364,-57.81647 34.74528,-79.78287 20.99594,-20.67358 41.760647,-41.58194 62.750907,-62.26135 13.94167,-13.7352 13.95337,-21.17566 -0.13871,-34.96216 C 116.95429,279.9683 98.492533,262.63493 81.079613,244.30824 59.432543,221.52525 44.793423,194.61715 38.472803,163.61706 26.388253,104.34715 51.862413,50.261208 105.60069,20.577759 169.9645,-14.97492 246.18569,-2.7291602 298.9418,51.171364 c 13.96274,14.265648 28.80957,27.686388 43.57412,41.139918 10.71952,9.767708 20.21961,9.081948 30.67158,-1.18891 16.1405,-15.86092 32.03814,-31.98629 48.59573,-47.40128 23.56054,-21.934677 50.84039,-36.9185832 83.14581,-41.5059582 41.16828,-5.845902 80.50452,-0.860577 114.94141,23.8754962 33.13336,23.799835 51.09173,57.204912 55.13629,97.77761 3.48309,34.94047 -7.3681,65.6333 -28.81952,92.96899 -23.07532,29.40503 -47.73975,57.28659 -76.41174,81.46201 -9.21149,7.76687 -9.45295,13.94879 -1.19458,22.92209 22.4389,24.38144 45.07336,48.58297 67.61834,72.86685 10.12867,10.90991 19.05872,22.68606 26.03321,36.31937 M 268.91381,115.19795 c -9.49536,-8.60289 -18.5339,-17.786448 -28.58001,-25.689218 -21.70517,-17.07439 -46.25791,-25.05449 -74.15473,-21.09138 -35.50252,5.04358 -76.037367,43.083318 -56.20636,95.820788 8.14371,21.65691 21.52974,39.56697 38.82958,54.82715 13.70446,12.08872 27.30018,24.33713 40.33314,37.13675 7.62283,7.48633 10.82788,8.36719 18.5882,0.86053 7.77218,-7.51809 15.33548,-15.25784 22.84546,-23.04022 21.60842,-22.39212 43.25738,-44.74711 64.65564,-67.33909 9.50851,-10.03893 9.24627,-15.59317 -0.1388,-25.1128 -8.5282,-8.6504 -17.13571,-17.22261 -26.17212,-26.37251 m 140.98346,353.98462 c 18.45291,20.849 37.94931,40.66638 59.51493,58.30078 8.06732,6.59662 16.28912,13.81604 25.68994,17.81256 24.66851,10.48737 49.34332,7.34357 72.73059,-4.81641 24.95312,-12.97405 37.43054,-38.36712 33.69775,-66.22094 -2.16894,-16.18427 -8.80163,-30.60175 -19.18561,-42.72266 -13.39904,-15.64029 -27.97784,-30.28433 -42.30639,-45.10815 -7.97156,-8.24716 -16.26691,-16.21033 -24.79071,-23.88568 -6.67694,-6.01233 -10.68653,-5.59382 -17.35578,0.57571 -0.9768,0.90369 -1.90533,1.85977 -2.8518,2.79602 -28.7331,28.423 -55.14887,59.28296 -88.107,83.26608 -5.36093,3.90107 -5.55362,8.44587 -1.85623,14.01142 1.28281,1.931 2.88947,3.64682 4.82031,5.99127 M 600.21176,111.03406 c -5.04248,-7.17426 -9.40717,-14.963488 -15.25403,-21.408038 -17.8653,-19.6917 -40.51575,-26.33053 -66.50409,-22.40841 -19.84381,2.99478 -36.55426,12.8483 -50.73505,26.17431 -18.28448,17.182278 -35.39111,35.630218 -52.77038,53.757978 -8.32505,8.68359 -8.01566,13.98628 0.52426,22.59776 26.22757,26.44733 52.48398,52.86603 78.77371,79.25156 10.24994,10.28729 17.29901,10.39041 27.62714,0.11175 16.62561,-16.54595 33.19714,-33.1506 49.53204,-49.98225 7.62646,-7.85835 15.51379,-15.69754 21.76172,-24.61163 13.56824,-19.35831 17.2998,-40.41144 7.04468,-63.48303 M 148.37553,543.86097 c 30.92335,11.08051 60.74028,9.62122 86.77431,-11.55877 19.83349,-16.13556 38.02713,-34.323 56.56826,-51.99829 12.525,-11.94013 12.4505,-18.5651 0.53202,-31.18759 -8.90171,-9.42756 -18.13724,-18.54178 -27.28858,-27.73133 -17.24814,-17.32022 -34.39239,-34.74814 -51.87939,-51.82455 -9.19513,-8.97925 -15.20236,-8.03839 -24.2403,0.863 -17.4084,17.14554 -34.77998,34.39307 -53.12901,50.50232 -21.88922,19.21729 -30.91362,42.49213 -25.20491,70.90677 4.54265,22.61066 14.76538,41.69892 37.8676,52.02844 M 365.24609,211.82585 c -7.6706,-7.01479 -12.24771,-7.06093 -18.33841,-0.72734 -17.52503,18.22374 -35.12729,36.37388 -52.79077,54.46348 -11.28272,11.55481 -23.02207,22.67774 -34.00778,34.50415 -8.86997,9.54874 -8.16987,15.69034 1.19864,24.7118 27.93881,26.90408 55.85522,53.83142 83.77215,80.75821 9.59342,9.25311 15.53711,8.58355 23.79617,-1.72834 9.65848,-12.05911 19.33341,-24.17782 29.92405,-35.39975 14.2705,-15.12115 29.46325,-29.36959 44.18145,-44.07138 10.50336,-10.49157 10.62616,-17.31674 0.56012,-28.17688 -25.91345,-27.95767 -51.87372,-55.87191 -78.29562,-84.33395 z"
     id="path2"
     style="fill:#ffffff" /><path
     fill="#040404"
     opacity="1"
     stroke="none"
     d="m 710.1473,328.29725 c -8.09869,18.45496 -28.75281,25.92441 -46.47955,17.1186 -26.48102,-13.15455 -30.27466,-46.73816 -7.08728,-65.27939 10.1344,-8.10364 21.88129,-9.23352 33.97107,-4.73239 13.0617,4.86291 19.93127,15.0231 21.14899,28.36563 0.72528,7.94629 -0.86188,16.10357 -1.55323,24.52755 z"
     id="path9"
     style="fill:#ffffff" /><path
     fill="#040404"
     opacity="1"
     stroke="none"
     d="m 67.485323,329.73417 c -1.47385,2.04551 -2.68444,3.8396 -4.04487,5.51181 -12.90226,15.85917 -36.29766,16.83435 -51.525393,2.17072 -15.7847828,-15.19998 -16.0203098,-39.14566 0.09526,-52.44366 12.153093,-10.02832 26.395803,-11.75861 40.828223,-5.93525 4.71671,1.90314 9.6501,6.2421 11.84882,10.75205 3.78633,7.76645 5.90602,16.44394 7.95112,24.92569 1.33092,5.5198 -1.8842,10.2713 -5.15316,15.01864 z"
     id="path10"
     style="fill:#ffffff" /><path
     fill="#030303"
     opacity="1"
     stroke="none"
     d="m 363.5754,260.75648 c 13.80277,1.1904 22.7544,9.06641 29.31159,19.82382 6.7099,11.008 12.56897,22.73075 10.60431,36.13321 -4.77536,32.57724 -38.88776,48.9917 -68.57761,33.30161 -12.62192,-6.67029 -22.36835,-15.91626 -24.45508,-30.75394 -1.73001,-12.3009 2.03952,-23.78033 7.53699,-34.59521 9.38068,-18.45407 24.71002,-26.13208 45.5798,-23.90949 z"
     id="path19"
     style="fill:#ffffff" /></g>
</svg>
