<?xml version="1.0" encoding="UTF-8" standalone="no"?>
<svg
   version="1.1"
   id="Layer_1"
   x="0px"
   y="0px"
   width="880"
   viewBox="0 0 880 880"
   enable-background="new 0 0 880 937"
   xml:space="preserve"
   sodipodi:docname="logo.svg"
   height="880"
   inkscape:version="1.3.2 (091e20ef0f, 2023-11-25)"
   xmlns:inkscape="http://www.inkscape.org/namespaces/inkscape"
   xmlns:sodipodi="http://sodipodi.sourceforge.net/DTD/sodipodi-0.dtd"
   xmlns="http://www.w3.org/2000/svg"
   xmlns:svg="http://www.w3.org/2000/svg"><defs
   id="defs19" /><sodipodi:namedview
   id="namedview19"
   pagecolor="#ffffff"
   bordercolor="#000000"
   borderopacity="0.25"
   inkscape:showpageshadow="2"
   inkscape:pageopacity="0.0"
   inkscape:pagecheckerboard="true"
   inkscape:deskcolor="#d1d1d1"
   inkscape:zoom="0.89090909"
   inkscape:cx="501.17347"
   inkscape:cy="451.78571"
   inkscape:window-width="1916"
   inkscape:window-height="1030"
   inkscape:window-x="0"
   inkscape:window-y="0"
   inkscape:window-maximized="0"
   inkscape:current-layer="Layer_1" />

<path
   fill="#020202"
   opacity="1"
   stroke="none"
   d="m 746.05231,454.98084 c 16.98419,32.875 15.94848,65.57177 1.2077,98.49658 -18.38202,41.05761 -47.84833,69.95837 -91.19311,83.79742 -45.94214,14.66828 -88.52546,6.49536 -126.93482,-21.22284 -17.29779,-12.48291 -32.20541,-28.30279 -48.03461,-42.78662 -9.57797,-8.76385 -18.77835,-17.93896 -28.26687,-26.80243 -10.99717,-10.27258 -19.08698,-9.91095 -29.65552,0.92566 -15.79501,16.19574 -31.02185,33.01727 -47.65576,48.30457 -19.59049,18.00445 -41.7403,32.52893 -67.02094,41.6961 -33.74875,12.23798 -66.84772,10.3147 -98.85113,-5.60681 -30.75585,-15.3009 -56.30181,-36.64465 -73.2648,-67.12579 -11.31527,-20.33258 -15.38389,-42.30847 -14.88542,-65.42047 0.6777,-31.42185 12.4364,-57.81647 34.74528,-79.78287 20.99594,-20.67358 41.76065,-41.58194 62.75091,-62.26135 13.94167,-13.7352 13.95337,-21.17566 -0.13871,-34.96216 -18.08036,-17.68824 -36.54212,-35.02161 -53.95504,-53.3483 -21.64707,-22.78299 -36.28619,-49.69109 -42.60681,-80.69118 -12.08455,-59.26991 13.38961,-113.355854 67.12789,-143.039303 64.36381,-35.552679 140.585,-23.306919 193.34111,30.593605 13.96274,14.265648 28.80957,27.686388 43.57412,41.139918 10.71952,9.76771 20.21961,9.08195 30.67158,-1.18891 16.1405,-15.86092 32.03814,-31.98629 48.59573,-47.40128 23.56054,-21.934677 50.84039,-36.918583 83.14581,-41.505958 41.16828,-5.845902 80.50452,-0.860577 114.94141,23.875496 33.13336,23.799835 51.09173,57.204912 55.13629,97.777612 3.48309,34.94047 -7.3681,65.6333 -28.81952,92.96899 -23.07532,29.40503 -47.73975,57.28659 -76.41174,81.46201 -9.21149,7.76687 -9.45295,13.94879 -1.19458,22.92209 22.4389,24.38144 45.07336,48.58297 67.61834,72.86685 10.12867,10.90991 19.05872,22.68606 26.03321,36.31937 M 352.73367,139.77124 c -9.49536,-8.60289 -18.5339,-17.78645 -28.58001,-25.68922 -21.70517,-17.07439 -46.25791,-25.05449 -74.15473,-21.09138 -35.50252,5.04358 -76.03737,43.08332 -56.20636,95.82079 8.14371,21.65691 21.52974,39.56697 38.82958,54.82715 13.70446,12.08872 27.30018,24.33713 40.33314,37.13675 7.62283,7.48633 10.82788,8.36719 18.5882,0.86053 7.77218,-7.51809 15.33548,-15.25784 22.84546,-23.04022 21.60842,-22.39212 43.25738,-44.74711 64.65564,-67.33909 9.50851,-10.03893 9.24627,-15.59317 -0.1388,-25.1128 -8.5282,-8.6504 -17.13571,-17.22261 -26.17212,-26.37251 m 140.98346,353.98462 c 18.45291,20.849 37.94931,40.66638 59.51493,58.30078 8.06732,6.59662 16.28912,13.81604 25.68994,17.81256 24.66851,10.48737 49.34332,7.34357 72.73059,-4.81641 24.95312,-12.97405 37.43054,-38.36712 33.69775,-66.22094 -2.16894,-16.18427 -8.80163,-30.60175 -19.18561,-42.72266 -13.39904,-15.64029 -27.97784,-30.28433 -42.30639,-45.10815 -7.97156,-8.24716 -16.26691,-16.21033 -24.79071,-23.88568 -6.67694,-6.01233 -10.68653,-5.59382 -17.35578,0.57571 -0.9768,0.90369 -1.90533,1.85977 -2.8518,2.79602 -28.7331,28.423 -55.14887,59.28296 -88.107,83.26608 -5.36093,3.90107 -5.55362,8.44587 -1.85623,14.01142 1.28281,1.931 2.88947,3.64682 4.82031,5.99127 M 684.03162,135.60735 c -5.04248,-7.17426 -9.40717,-14.96349 -15.25403,-21.40804 -17.8653,-19.6917 -40.51575,-26.33053 -66.50409,-22.40841 -19.84381,2.99478 -36.55426,12.8483 -50.73505,26.17431 -18.28448,17.18228 -35.39111,35.63022 -52.77038,53.75798 -8.32505,8.68359 -8.01566,13.98628 0.52426,22.59776 26.22757,26.44733 52.48398,52.86603 78.77371,79.25156 10.24994,10.28729 17.29901,10.39041 27.62714,0.11175 16.62561,-16.54595 33.19714,-33.1506 49.53204,-49.98225 7.62646,-7.85835 15.51379,-15.69754 21.76172,-24.61163 13.56824,-19.35831 17.2998,-40.41144 7.04468,-63.48303 M 232.19539,568.43426 c 30.92335,11.08051 60.74028,9.62122 86.77431,-11.55877 19.83349,-16.13556 38.02713,-34.323 56.56826,-51.99829 12.525,-11.94013 12.4505,-18.5651 0.53202,-31.18759 -8.90171,-9.42756 -18.13724,-18.54178 -27.28858,-27.73133 -17.24814,-17.32022 -34.39239,-34.74814 -51.87939,-51.82455 -9.19513,-8.97925 -15.20236,-8.03839 -24.2403,0.863 -17.4084,17.14554 -34.77998,34.39307 -53.12901,50.50232 -21.88922,19.21729 -30.91362,42.49213 -25.20491,70.90677 4.54265,22.61066 14.76538,41.69892 37.8676,52.02844 M 449.06595,236.39914 c -7.6706,-7.01479 -12.24771,-7.06093 -18.33841,-0.72734 -17.52503,18.22374 -35.12729,36.37388 -52.79077,54.46348 -11.28272,11.55481 -23.02207,22.67774 -34.00778,34.50415 -8.86997,9.54874 -8.16987,15.69034 1.19864,24.7118 27.93881,26.90408 55.85522,53.83142 83.77215,80.75821 9.59342,9.25311 15.53711,8.58355 23.79617,-1.72834 9.65848,-12.05911 19.33341,-24.17782 29.92405,-35.39975 14.2705,-15.12115 29.46325,-29.36959 44.18145,-44.07138 10.50336,-10.49157 10.62616,-17.31674 0.56012,-28.17688 -25.91345,-27.95767 -51.87372,-55.87191 -78.29562,-84.33395 z"
   id="path2" />
<path
   fill="#050505"
   opacity="1"
   stroke="none"
   d="m 630.07544,822.95239 c -9.71826,-12.41272 -19.22095,-24.54425 -28.72357,-36.67572 -0.37732,0.11463 -0.75464,0.22919 -1.13196,0.34381 0,1.57569 7.3e-4,3.15131 -6e-5,4.72699 -0.01,18.16571 0.0797,36.33228 -0.0721,54.49677 -0.0733,8.77405 -4.88874,12.6842 -13.54792,11.57672 -4.93042,-0.63056 -7.85193,-3.40582 -8.67712,-8.2497 -0.36139,-2.12146 -0.45319,-4.30999 -0.45538,-6.46826 -0.0292,-27.99871 -0.0344,-55.99743 -0.01,-83.99615 0.005,-6.08734 -0.0676,-12.33362 7.146,-14.94147 5.89526,-2.13129 10.38061,-0.0943 16.01843,7.09345 16.53094,21.07537 33.04736,42.1621 50.75531,63.16449 0,-1.65479 -1.2e-4,-3.30957 0,-4.96436 0.002,-17.49921 -0.0618,-34.99878 0.0325,-52.4975 0.0474,-8.7951 3.16034,-12.68292 10.19562,-13.3255 7.38684,-0.67462 12.31976,3.42475 12.44714,10.8913 0.21033,12.32928 0.11188,24.66406 0.11932,36.99652 0.0107,17.83252 -0.0234,35.6651 0.0127,53.49756 0.0106,5.24524 -0.64166,10.13733 -6.32361,12.34112 -5.05096,1.95917 -10.45386,0.36585 -14.61932,-4.73864 -7.79157,-9.54804 -15.31531,-19.31458 -23.1662,-29.27143 z"
   id="path3" />
<path
   fill="#050505"
   opacity="1"
   stroke="none"
   d="m 497.28503,743.10669 c 23.30994,-1.32916 42.20807,5.5567 54.01838,26.41333 7.27752,12.85187 8.45239,26.97333 6.42327,41.21112 -3.11712,21.87219 -14.43365,37.87952 -36.1607,44.50781 -29.16959,8.89874 -64.46075,-2.53381 -71.93329,-40.4765 -3.84576,-19.52728 -1.45023,-38.2279 11.87933,-54.1098 9.13749,-10.88709 21.38193,-16.01349 35.77301,-17.54596 m 33.43604,40.95911 c -0.28253,-0.78144 -0.53839,-1.5738 -0.85162,-2.34272 -4.99732,-12.26837 -14.28974,-18.25781 -27.71338,-17.87207 -12.73264,0.36585 -21.35852,6.77515 -25.63794,19.22235 -3.57035,10.38483 -3.50721,20.98536 -1.00205,31.52332 3.38636,14.24469 13.37628,22.26245 27.34741,22.44195 14.05124,0.18055 24.13236,-7.4862 28.02646,-21.58874 2.80591,-10.16138 2.62659,-20.39618 -0.16888,-31.38409 z"
   id="path4" />
<path
   fill="#040404"
   opacity="1"
   stroke="none"
   d="m 302.97998,763.02942 c 0.0809,-3.82288 -0.1734,-7.20178 0.31473,-10.46985 0.92627,-6.20154 5.47,-9.52405 12.1272,-9.36578 6.5527,0.15582 11.37332,3.50604 11.38641,9.51605 0.0506,23.30194 0.84634,46.71167 -1.09335,69.87543 -1.68116,20.07598 -14.99714,31.58502 -35.04444,34.5144 -12.03622,1.75885 -23.97803,1.31915 -35.3986,-3.33301 -15.38881,-6.26855 -23.21505,-18.61914 -24.00753,-34.47412 -1.07182,-21.44379 -0.70192,-42.9685 -0.60565,-64.45703 0.035,-7.81482 4.42278,-11.62274 11.94913,-11.65125 7.72038,-0.0292 12.20082,4.0102 12.29369,11.93634 0.20695,17.66254 0.0849,35.32886 0.10658,52.99366 0.002,1.99896 -0.0437,4.00696 0.1205,5.9953 1.51033,18.28711 16.86284,28.00927 33.96589,21.29242 10.76267,-4.22681 13.63755,-13.52082 13.79856,-23.88404 0.2485,-15.99475 0.0791,-31.99597 0.0869,-48.48852 z"
   id="path5" />
<path
   fill="#060606"
   opacity="1"
   stroke="none"
   d="m 400.81909,767.78442 c 4.38242,-6.10296 8.57459,-11.90155 12.77374,-17.69507 3.46891,-4.78607 7.96033,-7.53973 14.06583,-6.77966 8.14865,1.01441 11.94608,8.44245 7.66464,15.43793 -2.59903,4.24652 -5.78567,8.13965 -8.78753,12.13202 -6.30414,8.38446 -12.5051,16.85467 -19.07755,25.02484 -2.38858,2.96918 -2.02054,4.85492 0.13504,7.65613 9.13818,11.87542 18.07962,23.9032 27.01853,35.93072 4.73693,6.37384 4.70019,11.57166 0.11172,15.50507 -4.69375,4.02362 -12.86203,3.88129 -17.16833,-1.42725 -8.06461,-9.94153 -15.42469,-20.45459 -23.08094,-30.72748 -1.16278,-1.56024 -2.3425,-3.10778 -3.82187,-5.06872 -7.49939,10.32941 -14.57302,20.1831 -21.78567,29.93408 -1.96491,2.65643 -4.07178,5.33942 -6.59991,7.41889 -4.57691,3.7647 -12.12546,3.20513 -16.0796,-0.74262 -3.91159,-3.90527 -3.98962,-8.92621 0.13508,-14.4613 9.14886,-12.27747 18.34515,-24.52192 27.71261,-36.63245 2.10529,-2.72168 2.18027,-4.51721 0.0206,-7.30157 -8.6719,-11.17994 -17.08716,-22.5597 -25.54535,-33.9043 -4.8757,-6.53961 -5.02368,-12.0907 -0.57086,-16.05194 4.96127,-4.41364 12.99979,-4.05573 17.81781,1.8454 7.1456,8.75177 13.55154,18.1076 20.26379,27.2127 1.46625,1.98896 2.89637,4.00464 4.71735,6.52619 3.48358,-4.76215 6.6886,-9.14356 10.0809,-13.83161 z"
   id="path6" />
<path
   fill="#050505"
   opacity="1"
   stroke="none"
   d="m 760.49915,746.40283 c 8.86071,11.65625 17.44812,23.07361 26.41009,34.98889 3.49194,-4.79059 6.88116,-9.42639 10.25543,-14.07306 4.39881,-6.05749 8.66803,-12.21362 13.21326,-18.15881 3.87933,-5.07416 9.01575,-7.28174 15.3996,-5.35687 6.34283,1.91235 9.2077,7.96252 6.07403,13.78644 -2.18548,4.06176 -5.19494,7.69671 -7.97436,11.41913 -6.86884,9.1994 -13.72608,18.41052 -20.7945,27.4555 -1.86908,2.39178 -1.95215,3.92694 -0.0604,6.38458 9.33362,12.12592 18.46991,24.40418 27.63458,36.65961 4.49725,6.01392 4.61383,11.32892 0.45996,15.18664 -4.46142,4.14338 -12.50122,4.07715 -17.21741,-0.77374 -3.68048,-3.78576 -6.72247,-8.21368 -9.88421,-12.47772 -5.71503,-7.70746 -11.30768,-15.50561 -17.30207,-23.74805 -6.70788,9.23908 -13.02636,17.96375 -19.37194,26.66864 -1.95972,2.68836 -3.66974,5.67731 -6.08472,7.88141 -2.36035,2.15436 -5.2821,4.19916 -8.3017,5.01001 -4.83008,1.29694 -9.37823,-0.24768 -12.18591,-4.69171 -2.63464,-4.17017 -1.66992,-8.29419 1.17877,-12.07996 7.79804,-10.36303 15.59992,-20.7232 23.40296,-31.08245 7.35235,-9.76111 7.35125,-9.758 -0.0254,-19.5625 -6.89855,-9.16925 -13.82354,-18.31891 -20.67474,-27.52338 -4.85943,-6.52844 -5.21722,-11.61078 -1.27038,-15.72601 4.17901,-4.3573 10.39642,-4.51441 17.11908,-0.18659 z"
   id="path7" />
<path
   fill="#030303"
   opacity="1"
   stroke="none"
   d="m 54.804634,813.99988 c 1.22e-4,-18.6626 -0.03919,-36.82532 0.0154,-54.98773 0.0319,-10.61383 3.843888,-14.3584 14.55941,-14.3899 16.996056,-0.0499 33.992486,-0.0811 50.988396,-0.0213 7.12639,0.0251 10.21575,2.36725 10.76387,7.73584 0.7882,7.71997 -2.24781,11.32215 -10.07528,11.41284 -12.16231,0.14087 -24.32727,0.0534 -36.491103,0.0623 -1.616631,0.001 -3.233254,2.4e-4 -5.056305,2.4e-4 0,9.28968 0,18.0177 0,27.23444 13.100273,0 25.891398,-0.0693 38.681228,0.0294 6.36886,0.0491 9.56613,3.09125 9.78682,8.85309 0.24585,6.41876 -3.01233,10.05841 -9.52195,10.13782 -10.99591,0.13427 -21.994491,0.0481 -32.991951,0.0543 -1.820991,10e-4 -3.641983,1.8e-4 -6.26847,1.8e-4 0,2.00171 0.0041,3.75439 -6.79e-4,5.50714 -0.0279,10.16376 0.107856,20.33154 -0.140633,30.48999 -0.192322,7.86206 -4.193192,11.45764 -11.981285,11.44519 -7.506947,-0.012 -11.962502,-4.01843 -12.138428,-11.57361 -0.244308,-10.49206 -0.104439,-20.99304 -0.129036,-31.99029 z"
   id="path8" />
<path
   fill="#040404"
   opacity="1"
   stroke="none"
   d="m 793.96716,352.87054 c -8.09869,18.45496 -28.75281,25.92441 -46.47955,17.1186 -26.48102,-13.15455 -30.27466,-46.73816 -7.08728,-65.27939 10.1344,-8.10364 21.88129,-9.23352 33.97107,-4.73239 13.0617,4.86291 19.93127,15.0231 21.14899,28.36563 0.72528,7.94629 -0.86188,16.10357 -1.55323,24.52755 z"
   id="path9" />
<path
   fill="#040404"
   opacity="1"
   stroke="none"
   d="m 151.30518,354.30746 c -1.47385,2.04551 -2.68444,3.8396 -4.04487,5.51181 -12.90226,15.85917 -36.29766,16.83435 -51.525393,2.17072 -15.784783,-15.19998 -16.02031,-39.14566 0.09526,-52.44366 12.153093,-10.02832 26.395803,-11.75861 40.828223,-5.93525 4.71671,1.90314 9.6501,6.2421 11.84882,10.75205 3.78633,7.76645 5.90602,16.44394 7.95112,24.92569 1.33092,5.5198 -1.8842,10.2713 -5.15316,15.01864 z"
   id="path10" />
<path
   fill="#050505"
   opacity="1"
   stroke="none"
   d="m 169.57367,790.00037 c 0,15.28601 0,30.07202 0,45.41882 12.8474,0 25.28609,-10e-4 37.72478,0.002 1.66537,4.2e-4 3.33953,-0.0841 4.99459,0.0527 7.01685,0.5802 10.43587,4.27417 10.18512,10.90277 -0.24299,6.42316 -3.67884,9.74573 -10.69389,9.78418 -18.16043,0.0994 -36.32251,0.13568 -54.48234,-0.006 -8.08092,-0.0633 -12.26209,-4.39142 -12.28228,-12.52734 -0.0719,-28.99127 -0.0758,-57.9831 0.0132,-86.97424 0.0246,-8.00776 4.26085,-12.19562 11.89588,-12.34662 7.69827,-0.15223 12.18579,3.71283 12.44693,11.71057 0.36416,11.15161 0.15934,22.32171 0.19801,33.98401 z"
   id="path11" />
<path
   fill="#020202"
   opacity="1"
   stroke="none"
   d="m 721.19873,806.00012 c -0.0109,13.32794 0.088,26.15729 -0.0696,38.98346 -0.11304,9.19666 -4.97925,13.37238 -14.02374,12.46363 -6.03308,-0.60627 -9.78418,-4.24238 -10.1131,-10.34559 -0.28656,-5.31713 -0.16986,-10.65796 -0.1701,-15.98828 -10e-4,-25.15637 -0.0538,-50.31305 0.0726,-75.46887 0.0415,-8.25446 4.47022,-12.48816 12.29987,-12.42194 7.40332,0.0626 11.80072,4.15522 11.8866,11.79963 0.18896,16.82428 0.0956,33.65173 0.11749,50.97796 z"
   id="path12" />






<path
   fill="#030303"
   opacity="1"
   stroke="none"
   d="m 447.39526,285.32977 c 13.80277,1.1904 22.7544,9.06641 29.31159,19.82382 6.7099,11.008 12.56897,22.73075 10.60431,36.13321 -4.77536,32.57724 -38.88776,48.9917 -68.57761,33.30161 -12.62192,-6.67029 -22.36835,-15.91626 -24.45508,-30.75394 -1.73001,-12.3009 2.03952,-23.78033 7.53699,-34.59521 9.38068,-18.45407 24.71002,-26.13208 45.5798,-23.90949 z"
   id="path19" />
</svg>
