<?xml version="1.0" encoding="UTF-8" standalone="no"?>
<svg
   version="1.1"
   id="Layer_1"
   x="0px"
   y="0px"
   width="874.20752"
   viewBox="0 0 874.20752 874.20752"
   enable-background="new 0 0 880 937"
   xml:space="preserve"
   sodipodi:docname="logo_icon.svg"
   height="874.20752"
   inkscape:version="1.3.2 (091e20ef0f, 2023-11-25)"
   xmlns:inkscape="http://www.inkscape.org/namespaces/inkscape"
   xmlns:sodipodi="http://sodipodi.sourceforge.net/DTD/sodipodi-0.dtd"
   xmlns="http://www.w3.org/2000/svg"
   xmlns:svg="http://www.w3.org/2000/svg"><defs
   id="defs19" /><sodipodi:namedview
   id="namedview19"
   pagecolor="#ffffff"
   bordercolor="#000000"
   borderopacity="0.25"
   inkscape:showpageshadow="2"
   inkscape:pageopacity="0.0"
   inkscape:pagecheckerboard="true"
   inkscape:deskcolor="#d1d1d1"
   inkscape:zoom="0.62996786"
   inkscape:cx="577.01356"
   inkscape:cy="467.48417"
   inkscape:window-width="1916"
   inkscape:window-height="1030"
   inkscape:window-x="0"
   inkscape:window-y="0"
   inkscape:window-maximized="0"
   inkscape:current-layer="Layer_1" />












<circle
   style="fill:#ffffff"
   id="path1"
   cx="437.10376"
   cy="437.10376"
   r="437.10376" /><path
   fill="#fdfdfd"
   opacity="1"
   stroke="none"
   d="m 350.06934,137.14661 c 8.8045,8.87829 17.41201,17.4505 25.94021,26.1009 9.38507,9.51963 9.64731,15.07387 0.1388,25.1128 -21.39826,22.59198 -43.04722,44.94697 -64.65564,67.33909 -7.50998,7.78238 -15.07328,15.52213 -22.84546,23.04022 -7.76032,7.50666 -10.96537,6.6258 -18.5882,-0.86053 -13.03296,-12.79962 -26.62868,-25.04803 -40.33314,-37.13675 -17.29984,-15.26018 -30.68587,-33.17024 -38.82958,-54.82715 -19.83101,-52.73747 20.70384,-90.77721 56.20636,-95.82079 27.89682,-3.96311 52.44956,4.01699 74.15473,21.09138 10.04611,7.90277 19.08465,17.08633 28.81192,25.96083 z"
   id="path13" />
<path
   fill="#fdfdfd"
   opacity="1"
   stroke="none"
   d="m 490.58484,490.59448 c -1.69479,-2.07931 -3.30145,-3.79513 -4.58426,-5.72613 -3.69739,-5.56555 -3.5047,-10.11035 1.85623,-14.01142 32.95813,-23.98312 59.3739,-54.84308 88.107,-83.26608 0.94647,-0.93625 1.875,-1.89233 2.8518,-2.79602 6.66925,-6.16953 10.67884,-6.58804 17.35578,-0.57571 8.5238,7.67535 16.81915,15.63852 24.79071,23.88568 14.32855,14.82382 28.90735,29.46786 42.30639,45.10815 10.38398,12.12091 17.01667,26.53839 19.18561,42.72266 3.73279,27.85382 -8.74463,53.24689 -33.69775,66.22094 -23.38727,12.15998 -48.06208,15.30378 -72.73059,4.81641 -9.40082,-3.99652 -17.62262,-11.21594 -25.68994,-17.81256 C 528.7702,531.526 509.2738,511.70862 490.58484,490.59448 Z"
   id="path14" />
<path
   fill="#fdfdfd"
   opacity="1"
   stroke="none"
   d="m 681.28662,133.05803 c 10.10388,22.72467 6.37232,43.7778 -7.19592,63.13611 -6.24793,8.91409 -14.13526,16.75328 -21.76172,24.61163 -16.3349,16.83165 -32.90643,33.4363 -49.53204,49.98225 -10.32813,10.27866 -17.3772,10.17554 -27.62714,-0.11175 -26.28973,-26.38553 -52.54614,-52.80423 -78.77371,-79.25156 -8.53992,-8.61148 -8.84931,-13.91417 -0.52426,-22.59776 17.37927,-18.12776 34.4859,-36.5757 52.77038,-53.75798 14.18079,-13.32601 30.89124,-23.17953 50.73505,-26.17431 25.98834,-3.92212 48.63879,2.71671 66.50409,22.40841 5.84686,6.44455 10.21155,14.23378 15.40527,21.75496 z"
   id="path15" />
<path
   fill="#fdfdfd"
   opacity="1"
   stroke="none"
   d="m 228.93632,565.41663 c -22.73939,-10.20813 -32.96212,-29.29639 -37.50477,-51.90705 -5.70871,-28.41464 3.31569,-51.68948 25.20491,-70.90677 18.34903,-16.10925 35.72061,-33.35678 53.12901,-50.50232 9.03794,-8.90139 15.04517,-9.84225 24.2403,-0.863 17.487,17.07641 34.63125,34.50433 51.87939,51.82455 9.15134,9.18955 18.38687,18.30377 27.28858,27.73133 11.91848,12.62249 11.99298,19.24746 -0.53202,31.18759 -18.54113,17.67529 -36.73477,35.86273 -56.56826,51.99829 -26.03403,21.17999 -55.85096,22.63928 -87.13714,11.43738 z"
   id="path16" />
<path
   fill="#fafafa"
   opacity="1"
   stroke="none"
   d="m 446.40988,233.76813 c 26.18173,28.19681 52.142,56.11105 78.05545,84.06872 10.06604,10.86014 9.94324,17.68531 -0.56012,28.17688 -14.7182,14.70179 -29.91095,28.95023 -44.18145,44.07138 -10.59064,11.22193 -20.26557,23.34064 -29.92405,35.39975 -8.25906,10.31189 -14.20275,10.98145 -23.79617,1.72834 -27.91693,-26.92679 -55.83334,-53.85413 -83.77215,-80.75821 -9.36851,-9.02146 -10.06861,-15.16306 -1.19864,-24.7118 10.98571,-11.82641 22.72506,-22.94934 34.00778,-34.50415 17.66348,-18.0896 35.26574,-36.23974 52.79077,-54.46348 6.0907,-6.33359 10.66781,-6.28745 18.57858,0.99257 m -2.34686,48.56527 c -20.43378,-2.12246 -35.76312,5.55555 -45.1438,24.00962 -5.49747,10.81488 -9.267,22.29431 -7.53699,34.59521 2.08673,14.83768 11.83316,24.08365 24.45508,30.75394 29.68985,15.69009 63.80225,-0.72437 68.57761,-33.30161 1.96466,-13.40246 -3.89441,-25.12521 -10.60431,-36.13321 -6.55719,-10.75741 -15.50882,-18.63342 -29.74759,-19.92395 z"
   id="path17" />

<g
   id="g1"
   transform="translate(-2.6591622,102.14991)"><path
     fill="#020202"
     opacity="1"
     stroke="none"
     d="m 746.05231,454.98084 c 16.98419,32.875 15.94848,65.57177 1.2077,98.49658 -18.38202,41.05761 -47.84833,69.95837 -91.19311,83.79742 -45.94214,14.66828 -88.52546,6.49536 -126.93482,-21.22284 -17.29779,-12.48291 -32.20541,-28.30279 -48.03461,-42.78662 -9.57797,-8.76385 -18.77835,-17.93896 -28.26687,-26.80243 -10.99717,-10.27258 -19.08698,-9.91095 -29.65552,0.92566 -15.79501,16.19574 -31.02185,33.01727 -47.65576,48.30457 -19.59049,18.00445 -41.7403,32.52893 -67.02094,41.6961 -33.74875,12.23798 -66.84772,10.3147 -98.85113,-5.60681 -30.75585,-15.3009 -56.30181,-36.64465 -73.2648,-67.12579 -11.31527,-20.33258 -15.38389,-42.30847 -14.88542,-65.42047 0.6777,-31.42185 12.4364,-57.81647 34.74528,-79.78287 20.99594,-20.67358 41.76065,-41.58194 62.75091,-62.26135 13.94167,-13.7352 13.95337,-21.17566 -0.13871,-34.96216 -18.08036,-17.68824 -36.54212,-35.02161 -53.95504,-53.3483 -21.64707,-22.78299 -36.28619,-49.69109 -42.60681,-80.69118 -12.08455,-59.26991 13.38961,-113.355854 67.12789,-143.039303 64.36381,-35.552679 140.585,-23.306919 193.34111,30.593605 13.96274,14.265648 28.80957,27.686388 43.57412,41.139918 10.71952,9.76771 20.21961,9.08195 30.67158,-1.18891 16.1405,-15.86092 32.03814,-31.98629 48.59573,-47.40128 23.56054,-21.934677 50.84039,-36.918583 83.14581,-41.505958 41.16828,-5.845902 80.50452,-0.860577 114.94141,23.875496 33.13336,23.799835 51.09173,57.204912 55.13629,97.777612 3.48309,34.94047 -7.3681,65.6333 -28.81952,92.96899 -23.07532,29.40503 -47.73975,57.28659 -76.41174,81.46201 -9.21149,7.76687 -9.45295,13.94879 -1.19458,22.92209 22.4389,24.38144 45.07336,48.58297 67.61834,72.86685 10.12867,10.90991 19.05872,22.68606 26.03321,36.31937 M 352.73367,139.77124 c -9.49536,-8.60289 -18.5339,-17.78645 -28.58001,-25.68922 -21.70517,-17.07439 -46.25791,-25.05449 -74.15473,-21.09138 -35.50252,5.04358 -76.03737,43.08332 -56.20636,95.82079 8.14371,21.65691 21.52974,39.56697 38.82958,54.82715 13.70446,12.08872 27.30018,24.33713 40.33314,37.13675 7.62283,7.48633 10.82788,8.36719 18.5882,0.86053 7.77218,-7.51809 15.33548,-15.25784 22.84546,-23.04022 21.60842,-22.39212 43.25738,-44.74711 64.65564,-67.33909 9.50851,-10.03893 9.24627,-15.59317 -0.1388,-25.1128 -8.5282,-8.6504 -17.13571,-17.22261 -26.17212,-26.37251 m 140.98346,353.98462 c 18.45291,20.849 37.94931,40.66638 59.51493,58.30078 8.06732,6.59662 16.28912,13.81604 25.68994,17.81256 24.66851,10.48737 49.34332,7.34357 72.73059,-4.81641 24.95312,-12.97405 37.43054,-38.36712 33.69775,-66.22094 -2.16894,-16.18427 -8.80163,-30.60175 -19.18561,-42.72266 -13.39904,-15.64029 -27.97784,-30.28433 -42.30639,-45.10815 -7.97156,-8.24716 -16.26691,-16.21033 -24.79071,-23.88568 -6.67694,-6.01233 -10.68653,-5.59382 -17.35578,0.57571 -0.9768,0.90369 -1.90533,1.85977 -2.8518,2.79602 -28.7331,28.423 -55.14887,59.28296 -88.107,83.26608 -5.36093,3.90107 -5.55362,8.44587 -1.85623,14.01142 1.28281,1.931 2.88947,3.64682 4.82031,5.99127 M 684.03162,135.60735 c -5.04248,-7.17426 -9.40717,-14.96349 -15.25403,-21.40804 -17.8653,-19.6917 -40.51575,-26.33053 -66.50409,-22.40841 -19.84381,2.99478 -36.55426,12.8483 -50.73505,26.17431 -18.28448,17.18228 -35.39111,35.63022 -52.77038,53.75798 -8.32505,8.68359 -8.01566,13.98628 0.52426,22.59776 26.22757,26.44733 52.48398,52.86603 78.77371,79.25156 10.24994,10.28729 17.29901,10.39041 27.62714,0.11175 16.62561,-16.54595 33.19714,-33.1506 49.53204,-49.98225 7.62646,-7.85835 15.51379,-15.69754 21.76172,-24.61163 13.56824,-19.35831 17.2998,-40.41144 7.04468,-63.48303 M 232.19539,568.43426 c 30.92335,11.08051 60.74028,9.62122 86.77431,-11.55877 19.83349,-16.13556 38.02713,-34.323 56.56826,-51.99829 12.525,-11.94013 12.4505,-18.5651 0.53202,-31.18759 -8.90171,-9.42756 -18.13724,-18.54178 -27.28858,-27.73133 -17.24814,-17.32022 -34.39239,-34.74814 -51.87939,-51.82455 -9.19513,-8.97925 -15.20236,-8.03839 -24.2403,0.863 -17.4084,17.14554 -34.77998,34.39307 -53.12901,50.50232 -21.88922,19.21729 -30.91362,42.49213 -25.20491,70.90677 4.54265,22.61066 14.76538,41.69892 37.8676,52.02844 M 449.06595,236.39914 c -7.6706,-7.01479 -12.24771,-7.06093 -18.33841,-0.72734 -17.52503,18.22374 -35.12729,36.37388 -52.79077,54.46348 -11.28272,11.55481 -23.02207,22.67774 -34.00778,34.50415 -8.86997,9.54874 -8.16987,15.69034 1.19864,24.7118 27.93881,26.90408 55.85522,53.83142 83.77215,80.75821 9.59342,9.25311 15.53711,8.58355 23.79617,-1.72834 9.65848,-12.05911 19.33341,-24.17782 29.92405,-35.39975 14.2705,-15.12115 29.46325,-29.36959 44.18145,-44.07138 10.50336,-10.49157 10.62616,-17.31674 0.56012,-28.17688 -25.91345,-27.95767 -51.87372,-55.87191 -78.29562,-84.33395 z"
     id="path2" /><path
     fill="#040404"
     opacity="1"
     stroke="none"
     d="m 793.96716,352.87054 c -8.09869,18.45496 -28.75281,25.92441 -46.47955,17.1186 -26.48102,-13.15455 -30.27466,-46.73816 -7.08728,-65.27939 10.1344,-8.10364 21.88129,-9.23352 33.97107,-4.73239 13.0617,4.86291 19.93127,15.0231 21.14899,28.36563 0.72528,7.94629 -0.86188,16.10357 -1.55323,24.52755 z"
     id="path9" /><path
     fill="#040404"
     opacity="1"
     stroke="none"
     d="m 151.30518,354.30746 c -1.47385,2.04551 -2.68444,3.8396 -4.04487,5.51181 -12.90226,15.85917 -36.29766,16.83435 -51.525393,2.17072 -15.784783,-15.19998 -16.02031,-39.14566 0.09526,-52.44366 12.153093,-10.02832 26.395803,-11.75861 40.828223,-5.93525 4.71671,1.90314 9.6501,6.2421 11.84882,10.75205 3.78633,7.76645 5.90602,16.44394 7.95112,24.92569 1.33092,5.5198 -1.8842,10.2713 -5.15316,15.01864 z"
     id="path10" /><path
     fill="#030303"
     opacity="1"
     stroke="none"
     d="m 447.39526,285.32977 c 13.80277,1.1904 22.7544,9.06641 29.31159,19.82382 6.7099,11.008 12.56897,22.73075 10.60431,36.13321 -4.77536,32.57724 -38.88776,48.9917 -68.57761,33.30161 -12.62192,-6.67029 -22.36835,-15.91626 -24.45508,-30.75394 -1.73001,-12.3009 2.03952,-23.78033 7.53699,-34.59521 9.38068,-18.45407 24.71002,-26.13208 45.5798,-23.90949 z"
     id="path19" /></g>
</svg>
